<?xml version="1.0" encoding="UTF-8"?>
<svg version="1.1" viewBox="0 0 128 128" xmlns="http://www.w3.org/2000/svg">
 <g stroke-width=".37406">
  <rect x="42.951" y="72.884" width="44.888" height="26.933" ry="2.9925" fill="#424242"/>
  <rect x="43.325" y="77.56" width="44.14" height="20.387" ry="2.9925" fill="#848484"/>
  <rect x="23.5" y="25" width="83.79" height="59.85" ry="4.4888" fill="#6f6f6f"/>
  <rect x="23.874" y="25.378" width="83.042" height="57.606" ry="4.3017" fill="#acacac"/>
  <rect x="26.118" y="27.622" width="78.554" height="49.377" ry=".74813" fill="#424242"/>
  <rect x="56.418" y="78.121" width="17.955" height="2.9925" ry=".74813" fill="#424242"/>
 </g>
 <path d="m65.395 38.19c-3.6134 0-7.0787 1.4483-9.6338 4.0263-2.555 2.578-3.9904 6.0745-3.9904 9.7204s1.4354 7.1424 3.9904 9.7203c2.555 2.5781 6.0204 4.0264 9.6338 4.0264s7.0787-1.4483 9.6337-4.0264c2.5551-2.5779 3.9905-6.0744 3.9905-9.7203s-1.4354-7.1424-3.9905-9.7204c-2.5549-2.578-6.0203-4.0263-9.6337-4.0263zm0 5.4005c0.64524 0 1.2641 0.25863 1.7203 0.71899 0.45625 0.46036 0.71258 1.0847 0.71258 1.7358 0 0.65104-0.25633 1.2754-0.71258 1.7358-0.45626 0.46036-1.0751 0.71899-1.7203 0.71899s-1.2641-0.25863-1.7203-0.71899c-0.45625-0.46036-0.71258-1.0847-0.71258-1.7358 0-0.65104 0.25633-1.2754 0.71258-1.7358 0.45626-0.46036 1.0751-0.71899 1.7203-0.71899zm-1.9463 6.3824h3.8926v9.8191h-3.8926z" fill="#fff" stroke-width="1.955"/>
 <g transform="matrix(.78529 0 0 .78529 36.48 22.674)">
  <rect transform="matrix(.71758 .69648 -.71758 .69648 0 0)" x="77.176" y="-1.9592" width="50.888" height="8.6269" rx="0" ry="2.0112" fill="#4d4d4d" stroke-width=".61447"/>
  <circle transform="matrix(1.2065 0 0 1.2065 -42.769 -26.061)" cx="66.118" cy="52.269" r="18.256" fill="#808080" opacity=".50032" stroke-width="1.1093" style="mix-blend-mode:normal"/>
  <path d="m37 7.4185a29.971 30.311 0 0 0-29.971 30.311 29.971 30.311 0 0 0 29.971 30.311 29.971 30.311 0 0 0 29.971-30.311 29.971 30.311 0 0 0-29.971-30.311zm0 7.5042a22.551 22.807 0 0 1 22.551 22.807 22.551 22.807 0 0 1-22.551 22.807 22.551 22.807 0 0 1-22.551-22.807 22.551 22.807 0 0 1 22.551-22.807z" fill="#6f6f6f" stroke-width="1.184"/>
  <path d="m37 8a29 29 0 0 0-29 29 29 29 0 0 0 29 29 29 29 0 0 0 29-29 29 29 0 0 0-29-29zm0 7.1797a21.82 21.82 0 0 1 21.82 21.82 21.82 21.82 0 0 1-21.82 21.82 21.82 21.82 0 0 1-21.82-21.82 21.82 21.82 0 0 1 21.82-21.82z" fill="#acacac" stroke-width="1.1392"/>
 </g>
</svg>
